<svg width="500" height="200" viewBox="0 0 500 200" fill="none" xmlns="http://www.w3.org/2000/svg">
<path fill-rule="evenodd" clip-rule="evenodd" d="M480 0C491.046 0 500 8.95431 500 20V180C500 191.046 491.046 200 480 200H20C8.95432 200 0 191.046 0 180V20C0 8.95431 8.9543 0 20 0H480ZM455 25C466.046 25 475 33.9543 475 45V155C475 166.046 466.046 175 455 175H45C33.9543 175 25 166.046 25 155V45C25 33.9543 33.9543 25 45 25H455ZM114.443 70.16H113.243V83.12C113.243 96.32 105.003 110.24 94.5225 115.52L98.6025 120.8C106.695 116.499 113.387 107.434 116.61 96.8337C119.802 106.817 126.244 115.262 134.042 119.44L138.122 114.16C127.882 109.04 119.802 95.84 119.802 83.12V70.16H118.683H114.443ZM151.163 63.92H144.443V136.24H151.163V98.8H163.003V93.2H151.163V63.92ZM188.356 75.28H171.876V69.92H211.476V75.28H195.156V79.2C195.156 88.96 202.676 97.76 213.396 101.36L209.956 106.56C201.655 103.738 195.115 97.8147 191.872 90.2209C188.741 98.4293 182.147 104.892 173.556 108L170.116 102.72C180.996 98.88 188.356 89.52 188.356 79.2V75.28ZM228.436 64H221.716V116.88H228.436V64ZM230.596 129.2H188.516V111.92H181.956V129.2V131.6V134.64H230.596V129.2ZM330.61 98.32H265.25V103.84H330.61V98.32ZM323.01 86.08H280.05V72.24H322.45V66.8H273.49V86.08V88.64V91.44H323.01V86.08ZM322.61 123.12C322.61 114.8 313.25 110.08 297.81 110.08C282.37 110.08 273.01 114.8 273.01 123.12C273.01 131.44 282.37 136.08 297.81 136.08C313.25 136.08 322.61 131.44 322.61 123.12ZM279.73 123.12C279.73 118.08 286.53 115.2 297.81 115.2C309.17 115.2 315.89 118.08 315.89 123.12C315.89 128.08 309.17 130.88 297.81 130.88C286.53 130.88 279.73 128.08 279.73 123.12ZM368.204 103.68H338.764V109.12H404.364V103.68H374.844V96.08H397.484V90.88H353.804V83.28H395.884V65.76H347.084V70.96H389.404V78.4H347.244V90.88V93.04V96.08H368.204V103.68ZM396.364 114.64H346.044V120.08H389.724V135.6H396.364V114.64Z" fill="#858585"/>
</svg>
